<svg xmlns="http://www.w3.org/2000/svg" width="64" height="16" viewBox="0 0 64 16" shape-rendering="crispEdges"><rect x="5" y="3" width="6" height="1" fill="#ffb020"></rect><rect x="3" y="4" width="10" height="1" fill="#ffb020"></rect><rect x="2" y="5" width="12" height="1" fill="#ffb020"></rect><rect x="2" y="6" width="2" height="1" fill="#ffb020"></rect><rect x="6" y="6" width="4" height="1" fill="#ffb020"></rect><rect x="12" y="6" width="2" height="1" fill="#ffb020"></rect><rect x="2" y="7" width="12" height="1" fill="#ffb020"></rect><rect x="2" y="8" width="12" height="1" fill="#ffb020"></rect><rect x="2" y="9" width="1" height="1" fill="#a06a10"></rect><rect x="3" y="9" width="10" height="1" fill="#ffb020"></rect><rect x="13" y="9" width="1" height="1" fill="#a06a10"></rect><rect x="3" y="10" width="10" height="1" fill="#ffb020"></rect><rect x="4" y="11" width="2" height="1" fill="#ffb020"></rect><rect x="10" y="11" width="2" height="1" fill="#ffb020"></rect><rect x="21" y="2" width="6" height="1" fill="#ffb020"></rect><rect x="19" y="3" width="10" height="1" fill="#ffb020"></rect><rect x="18" y="4" width="12" height="1" fill="#ffb020"></rect><rect x="18" y="5" width="2" height="1" fill="#ffb020"></rect><rect x="22" y="5" width="4" height="1" fill="#ffb020"></rect><rect x="28" y="5" width="2" height="1" fill="#ffb020"></rect><rect x="18" y="6" width="12" height="1" fill="#ffb020"></rect><rect x="18" y="7" width="12" height="1" fill="#ffb020"></rect><rect x="18" y="8" width="1" height="1" fill="#a06a10"></rect><rect x="19" y="8" width="10" height="1" fill="#ffb020"></rect><rect x="29" y="8" width="1" height="1" fill="#a06a10"></rect><rect x="19" y="9" width="10" height="1" fill="#ffb020"></rect><rect x="18" y="10" width="2" height="1" fill="#ffb020"></rect><rect x="28" y="10" width="2" height="1" fill="#ffb020"></rect><rect x="37" y="1" width="6" height="1" fill="#ffb020"></rect><rect x="35" y="2" width="10" height="1" fill="#ffb020"></rect><rect x="34" y="3" width="12" height="1" fill="#ffb020"></rect><rect x="34" y="4" width="2" height="1" fill="#ffb020"></rect><rect x="38" y="4" width="4" height="1" fill="#ffb020"></rect><rect x="44" y="4" width="2" height="1" fill="#ffb020"></rect><rect x="34" y="5" width="12" height="1" fill="#ffb020"></rect><rect x="34" y="6" width="12" height="1" fill="#ffb020"></rect><rect x="34" y="7" width="1" height="1" fill="#a06a10"></rect><rect x="35" y="7" width="10" height="1" fill="#ffb020"></rect><rect x="45" y="7" width="1" height="1" fill="#a06a10"></rect><rect x="35" y="8" width="10" height="1" fill="#ffb020"></rect><rect x="36" y="9" width="2" height="1" fill="#ffb020"></rect><rect x="42" y="9" width="2" height="1" fill="#ffb020"></rect><rect x="53" y="2" width="6" height="1" fill="#ffb020"></rect><rect x="51" y="3" width="10" height="1" fill="#ffb020"></rect><rect x="50" y="4" width="12" height="1" fill="#ffb020"></rect><rect x="50" y="5" width="2" height="1" fill="#ffb020"></rect><rect x="54" y="5" width="4" height="1" fill="#ffb020"></rect><rect x="60" y="5" width="2" height="1" fill="#ffb020"></rect><rect x="50" y="6" width="12" height="1" fill="#ffb020"></rect><rect x="50" y="7" width="12" height="1" fill="#ffb020"></rect><rect x="50" y="8" width="1" height="1" fill="#a06a10"></rect><rect x="51" y="8" width="10" height="1" fill="#ffb020"></rect><rect x="61" y="8" width="1" height="1" fill="#a06a10"></rect><rect x="51" y="9" width="10" height="1" fill="#ffb020"></rect><rect x="50" y="10" width="2" height="1" fill="#ffb020"></rect><rect x="60" y="10" width="2" height="1" fill="#ffb020"></rect></svg>