<svg xmlns="http://www.w3.org/2000/svg" width="64" height="16" viewBox="0 0 64 16" shape-rendering="crispEdges"><rect x="5" y="3" width="6" height="1" fill="#d77757"/><rect x="3" y="4" width="10" height="1" fill="#d77757"/><rect x="2" y="5" width="12" height="1" fill="#d77757"/><rect x="2" y="6" width="2" height="1" fill="#d77757"/><rect x="6" y="6" width="4" height="1" fill="#d77757"/><rect x="12" y="6" width="2" height="1" fill="#d77757"/><rect x="2" y="7" width="12" height="1" fill="#d77757"/><rect x="2" y="8" width="12" height="1" fill="#d77757"/><rect x="2" y="9" width="1" height="1" fill="#8f4c30"/><rect x="3" y="9" width="10" height="1" fill="#d77757"/><rect x="13" y="9" width="1" height="1" fill="#8f4c30"/><rect x="3" y="10" width="10" height="1" fill="#d77757"/><rect x="2" y="11" width="2" height="1" fill="#d77757"/><rect x="12" y="11" width="2" height="1" fill="#d77757"/><rect x="14" y="3" width="1" height="1" fill="#7fb2e8"/><rect x="15" y="3" width="1" height="1" fill="#7fb2e8"/><rect x="20" y="5" width="8" height="1" fill="#d77757"/><rect x="18" y="6" width="12" height="1" fill="#d77757"/><rect x="18" y="7" width="2" height="1" fill="#d77757"/><rect x="22" y="7" width="4" height="1" fill="#d77757"/><rect x="28" y="7" width="2" height="1" fill="#d77757"/><rect x="18" y="8" width="12" height="1" fill="#d77757"/><rect x="18" y="9" width="1" height="1" fill="#8f4c30"/><rect x="19" y="9" width="10" height="1" fill="#d77757"/><rect x="29" y="9" width="1" height="1" fill="#8f4c30"/><rect x="19" y="10" width="10" height="1" fill="#d77757"/><rect x="20" y="11" width="8" height="1" fill="#d77757"/><rect x="19" y="12" width="2" height="1" fill="#d77757"/><rect x="27" y="12" width="2" height="1" fill="#d77757"/><rect x="30" y="7" width="1" height="1" fill="#7fb2e8"/><rect x="31" y="7" width="1" height="1" fill="#7fb2e8"/><rect x="37" y="3" width="6" height="1" fill="#d77757"/><rect x="35" y="4" width="10" height="1" fill="#d77757"/><rect x="34" y="5" width="12" height="1" fill="#d77757"/><rect x="34" y="6" width="2" height="1" fill="#d77757"/><rect x="38" y="6" width="4" height="1" fill="#d77757"/><rect x="44" y="6" width="2" height="1" fill="#d77757"/><rect x="34" y="7" width="12" height="1" fill="#d77757"/><rect x="34" y="8" width="12" height="1" fill="#d77757"/><rect x="34" y="9" width="1" height="1" fill="#8f4c30"/><rect x="35" y="9" width="10" height="1" fill="#d77757"/><rect x="45" y="9" width="1" height="1" fill="#8f4c30"/><rect x="35" y="10" width="10" height="1" fill="#d77757"/><rect x="34" y="11" width="2" height="1" fill="#d77757"/><rect x="44" y="11" width="2" height="1" fill="#d77757"/><rect x="45" y="12" width="1" height="1" fill="#7fb2e8"/><rect x="47" y="12" width="1" height="1" fill="#7fb2e8"/><rect x="53" y="2" width="6" height="1" fill="#d77757"/><rect x="51" y="3" width="10" height="1" fill="#d77757"/><rect x="50" y="4" width="12" height="1" fill="#d77757"/><rect x="50" y="5" width="2" height="1" fill="#d77757"/><rect x="54" y="5" width="4" height="1" fill="#d77757"/><rect x="60" y="5" width="2" height="1" fill="#d77757"/><rect x="50" y="6" width="12" height="1" fill="#d77757"/><rect x="50" y="7" width="12" height="1" fill="#d77757"/><rect x="50" y="8" width="1" height="1" fill="#8f4c30"/><rect x="51" y="8" width="10" height="1" fill="#d77757"/><rect x="61" y="8" width="1" height="1" fill="#8f4c30"/><rect x="51" y="9" width="10" height="1" fill="#d77757"/><rect x="52" y="10" width="2" height="1" fill="#d77757"/><rect x="58" y="10" width="2" height="1" fill="#d77757"/></svg>